<?xml version="1.0" encoding="UTF-8" standalone="no"?>
<!-- Created with Inkscape (http://www.inkscape.org/) -->

<svg
   xmlns:dc="http://purl.org/dc/elements/1.1/"
   xmlns:cc="http://creativecommons.org/ns#"
   xmlns:rdf="http://www.w3.org/1999/02/22-rdf-syntax-ns#"
   xmlns:svg="http://www.w3.org/2000/svg"
   xmlns="http://www.w3.org/2000/svg"
   xmlns:sodipodi="http://sodipodi.sourceforge.net/DTD/sodipodi-0.dtd"
   xmlns:inkscape="http://www.inkscape.org/namespaces/inkscape"
   width="220.58334mm"
   height="67.733315mm"
   viewBox="0 0 220.58334 67.733315"
   version="1.1"
   id="svg8"
   inkscape:export-filename="C:\Users\tamai\bitmap.png"
   inkscape:export-xdpi="181.42857"
   inkscape:export-ydpi="181.42857"
   inkscape:version="0.92.4 (5da689c313, 2019-01-14)"
   sodipodi:docname="logo-dark.svg">
  <defs
     id="defs2" />
  <sodipodi:namedview
     id="base"
     pagecolor="#ffffff"
     bordercolor="#666666"
     borderopacity="1.0"
     inkscape:pageopacity="0.0"
     inkscape:pageshadow="2"
     inkscape:zoom="0.7"
     inkscape:cx="499.03993"
     inkscape:cy="277.29298"
     inkscape:document-units="mm"
     inkscape:current-layer="layer1"
     showgrid="false"
     inkscape:snap-page="true"
     inkscape:snap-object-midpoints="true"
     inkscape:snap-center="true"
     inkscape:snap-nodes="false"
     fit-margin-top="0"
     fit-margin-left="0"
     fit-margin-right="0"
     fit-margin-bottom="0"
     inkscape:window-width="1920"
     inkscape:window-height="974"
     inkscape:window-x="-9"
     inkscape:window-y="-9"
     inkscape:window-maximized="1" />
  <metadata
     id="metadata5">
    <rdf:RDF>
      <cc:Work
         rdf:about="">
        <dc:format>image/svg+xml</dc:format>
        <dc:type
           rdf:resource="http://purl.org/dc/dcmitype/StillImage" />
        <dc:title></dc:title>
      </cc:Work>
    </rdf:RDF>
  </metadata>
  <g
     inkscape:label="レイヤー 1"
     inkscape:groupmode="layer"
     id="layer1"
     transform="translate(2.2198319e-6)">
    <g
       style="clip-rule:evenodd;fill-rule:evenodd;stroke-linejoin:round;stroke-miterlimit:2"
       transform="matrix(0.35618345,0,0,0.12428564,55.631933,10.737409)"
       id="g25">
        <rect
   x="-156.189"
   y="-86.392998"
   width="619.297"
   height="544.98102"
   style="fill:#1b1e1f"
   id="rect23" />

    </g>
    <g
       id="g114"
       transform="translate(5.9145945,0.00160574)">
      <g
         id="g51"
         transform="matrix(0.23769002,0,0,0.23769002,-31.914125,-32.006055)"
         style="clip-rule:evenodd;fill-rule:evenodd;stroke-linejoin:round;stroke-miterlimit:2">
        <g
   id="g29"
   transform="rotate(59.999988,288.00024,166.27682)">
            <path
   id="path27"
   style="fill:#ffffff"
   d="m 390.877,136.653 c -1.42,-2.46 -4.046,-3.976 -6.887,-3.976 -2.841,0 -5.466,1.516 -6.887,3.976 -4.01,6.946 -8.957,15.515 -12.499,21.65 -2.855,4.945 -2.855,11.037 0,15.982 3.538,6.129 8.48,14.687 12.488,21.63 1.423,2.464 4.052,3.983 6.898,3.983 2.846,0 5.476,-1.519 6.899,-3.983 4.008,-6.943 8.949,-15.501 12.488,-21.631 2.855,-4.944 2.855,-11.036 0,-15.981 -3.542,-6.135 -8.489,-14.704 -12.5,-21.65 z"
   inkscape:connector-curvature="0" />

        </g>

        <g
   id="g33"
   transform="translate(-96,166.277)">
            <path
   id="path31"
   style="fill:#ffffff"
   d="m 390.877,136.653 c -1.42,-2.46 -4.046,-3.976 -6.887,-3.976 -2.841,0 -5.466,1.516 -6.887,3.976 -4.01,6.946 -8.957,15.515 -12.499,21.65 -2.855,4.945 -2.855,11.037 0,15.982 3.538,6.129 8.48,14.687 12.488,21.63 1.423,2.464 4.052,3.983 6.898,3.983 2.846,0 5.476,-1.519 6.899,-3.983 4.008,-6.943 8.949,-15.501 12.488,-21.631 2.855,-4.944 2.855,-11.036 0,-15.981 -3.542,-6.135 -8.489,-14.704 -12.5,-21.65 z"
   inkscape:connector-curvature="0" />

        </g>

        <g
   id="g37"
   transform="rotate(-59.999988,384.00039,332.55413)">
            <path
   id="path35"
   style="fill:#ffffff"
   d="m 390.877,136.653 c -1.42,-2.46 -4.046,-3.976 -6.887,-3.976 -2.841,0 -5.466,1.516 -6.887,3.976 -4.01,6.946 -8.957,15.515 -12.499,21.65 -2.855,4.945 -2.855,11.037 0,15.982 3.538,6.129 8.48,14.687 12.488,21.63 1.423,2.464 4.052,3.983 6.898,3.983 2.846,0 5.476,-1.519 6.899,-3.983 4.008,-6.943 8.949,-15.501 12.488,-21.631 2.855,-4.944 2.855,-11.036 0,-15.981 -3.542,-6.135 -8.489,-14.704 -12.5,-21.65 z"
   inkscape:connector-curvature="0" />

        </g>

        <g
   id="g41"
   transform="translate(-95.9902,55.4086)">
            <path
   id="path39"
   style="fill:#96d04a"
   d="m 390.877,136.653 c -1.42,-2.46 -4.046,-3.976 -6.887,-3.976 -2.841,0 -5.466,1.516 -6.887,3.976 -4.01,6.946 -8.957,15.515 -12.499,21.65 -2.855,4.945 -2.855,11.037 0,15.982 3.538,6.129 8.48,14.687 12.488,21.63 1.423,2.464 4.052,3.983 6.898,3.983 2.846,0 5.476,-1.519 6.899,-3.983 4.008,-6.943 8.949,-15.501 12.488,-21.631 2.855,-4.944 2.855,-11.036 0,-15.981 -3.542,-6.135 -8.489,-14.704 -12.5,-21.65 z m -5.196,3 c -0.349,-0.604 -0.993,-0.976 -1.691,-0.976 -0.697,0 -1.342,0.372 -1.691,0.976 -4.01,6.946 -8.957,15.515 -12.499,21.65 -1.783,3.088 -1.783,6.893 0,9.982 3.539,6.129 8.48,14.687 12.488,21.63 0.351,0.608 1,0.983 1.702,0.983 0.702,0 1.351,-0.375 1.702,-0.983 4.009,-6.943 8.95,-15.501 12.489,-21.631 1.783,-3.088 1.783,-6.893 0,-9.981 z"
   inkscape:connector-curvature="0" />

        </g>

        <g
   id="g45"
   transform="rotate(-59.999988,479.99989,277.12819)">
            <path
   id="path43"
   style="fill:#96d04a"
   d="m 390.877,136.653 c -1.42,-2.46 -4.046,-3.976 -6.887,-3.976 -2.841,0 -5.466,1.516 -6.887,3.976 -4.01,6.946 -8.957,15.515 -12.499,21.65 -2.855,4.945 -2.855,11.037 0,15.982 3.538,6.129 8.48,14.687 12.488,21.63 1.423,2.464 4.052,3.983 6.898,3.983 2.846,0 5.476,-1.519 6.899,-3.983 4.008,-6.943 8.949,-15.501 12.488,-21.631 2.855,-4.944 2.855,-11.036 0,-15.981 -3.542,-6.135 -8.489,-14.704 -12.5,-21.65 z m -5.196,3 c -0.349,-0.604 -0.993,-0.976 -1.691,-0.976 -0.697,0 -1.342,0.372 -1.691,0.976 -4.01,6.946 -8.957,15.515 -12.499,21.65 -1.783,3.088 -1.783,6.893 0,9.982 3.539,6.129 8.48,14.687 12.488,21.63 0.351,0.608 1,0.983 1.702,0.983 0.702,0 1.351,-0.375 1.702,-0.983 4.009,-6.943 8.95,-15.501 12.489,-21.631 1.783,-3.088 1.783,-6.893 0,-9.981 z"
   inkscape:connector-curvature="0" />

        </g>

        <g
   id="g49"
   transform="rotate(59.999988,191.99987,110.85138)">
            <path
   id="path47"
   style="fill:#96d04a"
   d="m 390.877,136.653 c -1.42,-2.46 -4.046,-3.976 -6.887,-3.976 -2.841,0 -5.466,1.516 -6.887,3.976 -4.01,6.946 -8.957,15.515 -12.499,21.65 -2.855,4.945 -2.855,11.037 0,15.982 3.538,6.129 8.48,14.687 12.488,21.63 1.423,2.464 4.052,3.983 6.898,3.983 2.846,0 5.476,-1.519 6.899,-3.983 4.008,-6.943 8.949,-15.501 12.488,-21.631 2.855,-4.944 2.855,-11.036 0,-15.981 -3.542,-6.135 -8.489,-14.704 -12.5,-21.65 z m -5.196,3 c -0.349,-0.604 -0.993,-0.976 -1.691,-0.976 -0.697,0 -1.342,0.372 -1.691,0.976 -4.01,6.946 -8.957,15.515 -12.499,21.65 -1.783,3.088 -1.783,6.893 0,9.982 3.539,6.129 8.48,14.687 12.488,21.63 0.351,0.608 1,0.983 1.702,0.983 0.702,0 1.351,-0.375 1.702,-0.983 4.009,-6.943 8.95,-15.501 12.489,-21.631 1.783,-3.088 1.783,-6.893 0,-9.981 z"
   inkscape:connector-curvature="0" />

        </g>

    </g>
      <path
         id="path2"
         transform="scale(0.26458333)"
         d="m 276.43164,81.189453 c -1.86117,-0.0075 -3.70957,0.316405 -5.45703,0.957031 -3.09515,1.089222 -5.64537,3.047996 -7.64453,5.869141 -1.91121,2.729817 -2.86914,5.776822 -2.86914,9.142578 v 59.789067 c 0,4.36702 1.55081,8.14503 4.64258,11.32812 3.18647,3.09514 6.96447,4.64063 11.32812,4.64063 4.46174,0 8.23689,-1.54496 11.33203,-4.63672 3.18648,-3.18648 4.77539,-6.96501 4.77539,-11.33203 v -10.87305 c 0.0338,-2.35434 2.45959,-1.73531 3.6875,0 2.29345,3.97464 7.16073,7.3915 12.83008,7.37109 v 0.004 c 5.66597,-0.0237 10.37426,-2.82531 12.83008,-7.375 0.93023,-1.09599 3.5536,-2.96661 3.82422,0 v 10.87305 c 0,4.36702 1.54496,8.14503 4.63672,11.32812 3.18986,3.09514 6.965,4.64063 11.33203,4.64063 4.45836,0 8.23689,-1.54496 11.33203,-4.63672 3.18648,-3.18648 4.77539,-6.96501 4.77539,-11.33203 V 97.158203 c 0,-3.365756 -1.00084,-6.412761 -3,-9.142578 -1.91459,-2.824528 -4.418,-4.779919 -7.50977,-5.869141 -1.81987,-0.639322 -3.6391,-0.957031 -5.45898,-0.957031 -4.91502,0 -9.05469,1.910004 -12.42383,5.732422 L 313.1875,105.88867 c -0.36195,0.27399 -1.56875,2.36133 -4.13281,2.36133 -2.5573,0 -3.62686,-2.08681 -3.99219,-2.35742 L 288.7168,86.921875 c -3.27443,-3.822418 -7.37014,-5.732422 -12.28516,-5.732422 z m 100.99219,0.002 c -3.82242,0 -7.09748,1.36506 -9.82617,4.09375 -2.63849,2.638481 -3.95704,5.868989 -3.95704,9.691406 10e-6,3.822418 1.31855,7.097491 3.95704,9.826171 2.72869,2.63849 6.00375,3.95899 9.82617,3.95899 3.8224,0 7.09914,-1.3205 9.83008,-3.95899 2.7287,-2.72868 4.09375,-6.003753 4.09375,-9.826171 0,-3.822417 -1.36505,-7.052925 -4.09375,-9.691406 -2.73094,-2.72869 -6.00768,-4.09375 -9.83008,-4.09375 z m 152.66406,0.955078 c -3.82017,0 -7.09553,1.363109 -9.82422,4.091797 -2.63849,2.638483 -3.95703,5.869288 -3.95703,9.689453 v 63.583989 c 0,3.82242 1.31854,7.09748 3.95703,9.82617 2.72869,2.63848 6.00405,3.95703 9.82422,3.95703 3.82241,0 7.09748,-1.31855 9.82617,-3.95703 2.72867,-2.72869 4.09375,-6.00406 4.09375,-9.82422 0,-2.72869 0.36175,-4.09179 1.08789,-4.09179 0.36533,0 0.73067,0.13563 1.09375,0.40624 l 13.64453,13.23633 c 2.7287,2.63849 5.95949,3.95703 9.68946,3.95703 3.91035,0 7.18377,-1.36506 9.82226,-4.09375 2.63849,-2.82114 3.95899,-6.05 3.95899,-9.6875 0,-3.91262 -1.40962,-7.23225 -4.22852,-9.96093 -6.18802,-6.09557 -9.41884,-9.23366 -9.68945,-9.41407 -1.18395,-1.18393 -1.13744,-2.18529 0.13672,-3.0039 l 0.27344,-0.13672 v -0.13477 l 8.5957,-5.45898 c 4.09302,-2.72869 6.13867,-6.59386 6.13867,-11.5957 0,-2.72869 -0.7271,-5.27667 -2.18164,-7.64454 -2.72869,-4.09303 -6.59552,-6.14062 -11.59961,-6.14062 -2.72869,0 -5.27502,0.72709 -7.64062,2.18164 -10.55169,7.00665 -16.00968,10.6025 -16.375,10.78516 -0.63595,0.45328 -1.2277,0.5424 -1.77344,0.26953 -0.63819,-0.27287 -0.95703,-0.86268 -0.95703,-1.77149 V 95.927734 c 0,-3.820165 -1.36506,-7.05097 -4.09375,-9.689453 -2.7287,-2.728688 -6.00212,-4.091797 -9.82227,-4.091797 z m 92.06641,23.376959 c -9.46021,0 -17.5556,3.36614 -24.28711,10.09765 -6.64131,6.64131 -9.96289,14.64758 -9.96289,24.01758 0,9.4602 3.32158,17.5556 9.96289,24.28711 6.73151,6.64131 14.8269,9.96094 24.28711,9.96094 9.36997,0 17.42083,-3.31963 24.15234,-9.96094 2.09275,-2.09274 3.13867,-4.63937 3.13867,-7.63867 0,-3.00381 -1.04592,-5.55179 -3.13867,-7.64453 -2.09275,-2.09049 -4.63939,-3.13477 -7.63867,-3.13477 -3.00382,0 -5.55178,1.04428 -7.64453,3.13477 -2.45581,2.54828 -5.41206,3.82226 -8.86914,3.82226 -3.54505,0 -6.59234,-1.22777 -9.14063,-3.68359 -2.45808,-2.54828 -3.6875,-5.59528 -3.6875,-9.14258 0,-3.45483 1.27398,-6.41106 3.82227,-8.86914 1.27413,-1.36434 2.82104,-2.27494 4.63867,-2.73047 0.4578,-0.0902 0.82118,-0.0456 1.0918,0.13477 0.18265,0.27512 0.0919,0.54939 -0.27344,0.82226 l -2.72656,2.86524 c -2.09275,2.09274 -3.13868,4.59285 -3.13868,7.50195 0,3.00156 0.90894,5.41255 2.72657,7.23242 1.81989,1.81988 4.36785,2.73047 7.64453,2.73047 2.27316,0 4.5452,-1.137 6.81836,-3.41015 l 15.83203,-15.69141 c 2.09275,-2.095 3.13867,-4.64328 3.13867,-7.64258 0,-3.00381 -1.04592,-5.55013 -3.13867,-7.64062 -6.36845,-6.27824 -14.23745,-9.41797 -23.60742,-9.41797 z m -198.53516,0.2207 c -8.53199,-0.11245 -15.18681,2.13346 -19.96484,6.74024 -4.18323,4.00282 -6.27539,9.05121 -6.27539,15.14453 0.0902,7.64258 3.04642,13.37515 8.86914,17.19531 1.72742,1.18168 3.86414,2.13683 6.41015,2.86523 1.2764,0.45554 3.41476,1.00078 6.41407,1.63672 2.63846,0.63595 5.50363,1.22575 8.59765,1.77149 0.63595,0.18266 0.90857,0.50345 0.81836,0.95898 0,0.54574 -0.22611,0.81836 -0.68164,0.81836 -1.18168,0.0902 -2.27412,0.13477 -3.27539,0.13477 -7.45991,-0.81861 -12.508,-1.50114 -15.14648,-2.04688 -0.72615,-0.18265 -1.49977,-0.27344 -2.31836,-0.27344 -2.82117,0 -5.27837,1.04593 -7.3711,3.13867 -2.0003,2.00254 -3,4.4581 -3,7.36719 0,2.36562 0.72708,4.50398 2.18164,6.41407 1.54699,1.91008 3.54974,3.13785 6.00782,3.68359 7.64034,1.72967 14.55282,2.59375 20.73632,2.59375 8.46121,0 15.05785,-2.2737 19.78907,-6.82227 4.09302,-3.91262 6.13867,-8.9607 6.13867,-15.14648 0,-7.64033 -2.91169,-13.37289 -8.73438,-17.19531 -3.09402,-2.00029 -7.36881,-3.45447 -12.82617,-4.36328 -3.27443,-0.63595 -6.00454,-1.2274 -8.1875,-1.7754 v 0.002 c -0.63821,-0.18266 -1.00159,-0.54606 -1.0918,-1.0918 0,-0.45553 0.36339,-0.72815 1.0918,-0.81836 0.8186,-0.0902 1.68464,-0.0902 2.5957,0 7.55014,0.7284 12.64472,1.36442 15.28321,1.91016 0.72612,0.18041 1.45322,0.27148 2.18164,0.27148 2.91134,0 5.36688,-0.99971 7.36719,-3 2.09272,-2.09275 3.13867,-4.54829 3.13867,-7.36719 0,-2.45807 -0.77333,-4.641 -2.32031,-6.54882 -1.54702,-1.91234 -3.50188,-3.14177 -5.86524,-3.6875 -6.27825,-1.36435 -12.55605,-2.18417 -18.83203,-2.45703 -0.58548,-0.0285 -1.16167,-0.0452 -1.73047,-0.0527 z m 59.37891,0 c -8.53199,-0.11245 -15.18682,2.13346 -19.96485,6.74024 -4.18323,4.00282 -6.27539,9.05121 -6.27539,15.14453 0.0902,7.64258 3.04643,13.37515 8.86914,17.19531 1.72742,1.18168 3.86581,2.13683 6.41407,2.86523 1.27415,0.45554 3.41251,1.00078 6.41406,1.63672 2.63849,0.63595 5.50395,1.22575 8.5957,1.77149 0.63594,0.18266 0.90857,0.50345 0.81836,0.95898 0,0.54574 -0.22806,0.81836 -0.68359,0.81836 -1.18169,0.0902 -2.27412,0.13477 -3.27539,0.13477 -7.45767,-0.81861 -12.50412,-1.50114 -15.14258,-2.04688 -0.72842,-0.18265 -1.50367,-0.27344 -2.32227,-0.27344 -2.82116,0 -5.2767,1.04593 -7.36719,3.13867 -2.00254,2.00254 -3.0039,4.4581 -3.0039,7.36719 0,2.36562 0.72874,4.50398 2.18555,6.41407 1.54476,1.91008 3.54585,3.13785 6.0039,3.68359 7.64034,1.72967 14.55446,2.59375 20.74024,2.59375 8.45893,0 15.05394,-2.2737 19.78515,-6.82227 4.09305,-3.91262 6.13867,-8.9607 6.13867,-15.14648 0,-7.64033 -2.90999,-13.37289 -8.73046,-17.19531 -3.094,-2.00029 -7.36879,-3.45447 -12.82618,-4.36328 -3.27443,-0.63595 -6.00454,-1.2274 -8.1875,-1.7754 l -0.002,0.002 c -0.63594,-0.18266 -0.99964,-0.54606 -1.08984,-1.0918 0,-0.45553 0.36369,-0.72815 1.08984,-0.81836 0.82086,-0.0902 1.68495,-0.0902 2.59375,0 7.55014,0.7284 12.64472,1.36442 15.2832,1.91016 0.72839,0.18041 1.4555,0.27148 2.18164,0.27148 2.91135,0 5.36855,-0.99971 7.3711,-3 2.09048,-2.09275 3.13476,-4.54829 3.13476,-7.36719 0,-2.45807 -0.77166,-4.641 -2.3164,-6.54882 -1.54701,-1.91234 -3.50354,-3.14177 -5.86914,-3.6875 -6.27598,-1.36435 -12.55379,-2.18417 -18.83203,-2.45703 -0.58549,-0.0285 -1.16167,-0.0452 -1.73047,-0.0527 z m 185.04883,0.96289 c -3.82018,0 -7.09553,1.36506 -9.82422,4.09375 -2.63849,2.63623 -3.95704,5.86508 -3.95704,9.6875 v 18.9668 c 10e-6,9.18733 3.27341,17.05466 9.82227,23.60351 6.55111,6.54886 14.42205,9.82422 23.60938,9.82422 1.81989,0 3.50181,-0.13563 5.04882,-0.40625 0.9088,-0.18266 1.54515,-8.1e-4 1.90821,0.54492 0.27288,0.36308 0.18376,0.86376 -0.26953,1.50196 -1.18393,1.63721 -3.68765,2.45508 -7.50782,2.45508 -1.45454,0 -3.31835,-0.3634 -5.59375,-1.0918 -2.27316,-0.7284 -4.04616,-1.0918 -5.32031,-1.0918 -5.36716,0 -9.14322,2.45525 -11.32617,7.36914 -0.81862,1.63722 -1.22852,3.36567 -1.22852,5.18555 0,5.36717 2.41098,9.14322 7.23242,11.32617 4.82145,2.27316 10.23323,3.41016 16.23633,3.41016 10.37128,0 18.60394,-3.04896 24.69727,-9.14453 6.18802,-6.09332 9.2832,-14.23328 9.2832,-24.42188 v -24.9707 c 0.18041,-1.45681 0.26953,-2.82187 0.26953,-4.09375 v -18.9668 c 0,-3.82016 -1.3631,-7.04902 -4.09179,-9.6875 -2.63847,-2.72869 -5.86929,-4.09375 -9.68946,-4.09375 -3.82241,0 -7.09748,1.36506 -9.82617,4.09375 -2.72869,2.63623 -4.09375,5.86508 -4.09375,9.6875 v 18.9668 c 0,1.54475 -0.54524,2.90981 -1.63672,4.09375 -1.09147,1.09147 -2.45458,1.63672 -4.09179,1.63672 -1.54702,0 -2.9121,-0.54525 -4.09375,-1.63672 -1.09148,-1.18394 -1.63672,-2.549 -1.63672,-4.09375 v -18.9668 c 0,-3.82016 -1.36506,-7.04902 -4.09375,-9.6875 -2.73096,-2.72869 -6.00603,-4.09375 -9.82617,-4.09375 z m -290.48633,4.78711 c -3.82242,0 -7.09944,1.36506 -9.82813,4.09375 -2.72869,2.73094 -4.0918,6.00766 -4.0918,9.83008 v 33.71484 c 10e-6,3.82242 1.36311,7.09749 4.0918,9.82617 2.73094,2.63849 6.00797,3.95704 9.82813,3.95704 3.82467,0 7.05487,-1.31855 9.69336,-3.95704 2.7287,-2.72868 4.09375,-6.00375 4.09375,-9.82617 v -33.71484 c 0,-3.82468 -1.36505,-7.10139 -4.09375,-9.83008 -2.64072,-2.72869 -5.87096,-4.09375 -9.69336,-4.09375 z"
         style="font-weight:400;font-size:141.03399658px;line-height:476.69509888px;font-family:'OTADESIGN Rounded';-inkscape-font-specification:'OTADESIGN Rounded';letter-spacing:0;word-spacing:0;fill:#ffffff;fill-opacity:1;stroke-width:3.38267088"
         inkscape:connector-curvature="0" />
    </g>
  </g>
</svg>
